<svg width="24" height="24" viewBox="0 0 24 24" fill="none" xmlns="http://www.w3.org/2000/svg">
<g clip-path="url(#clip0_2538_3432)">
<mask id="mask0_2538_3432" style="mask-type:luminance" maskUnits="userSpaceOnUse" x="0" y="0" width="24" height="24">
<path d="M24 0H0V24H24V0Z" fill="white"/>
</mask>
<g mask="url(#mask0_2538_3432)">
<path d="M9.5904 12.6696C10.2604 11.7796 11.0204 10.9696 11.8604 10.2396L11.8704 10.2296C11.9504 10.1696 11.9904 10.0696 11.9904 9.96965C11.9904 9.86965 11.9504 9.77965 11.8704 9.70965L11.8604 9.69965C11.0204 8.97965 10.2504 8.15965 9.5904 7.26965C9.5304 7.18965 9.43038 7.13965 9.32038 7.13965C9.21038 7.13965 9.12036 7.18965 9.05036 7.26965C8.38036 8.15965 7.6204 8.96965 6.7804 9.69965L6.77039 9.70965C6.69039 9.76965 6.65039 9.86965 6.65039 9.96965C6.65039 10.0696 6.69039 10.1596 6.77039 10.2296L6.7804 10.2396C7.6204 10.9596 8.39036 11.7796 9.05036 12.6696C9.11036 12.7496 9.21038 12.7996 9.32038 12.7996C9.43038 12.7996 9.5304 12.7496 9.5904 12.6696Z" stroke="#1A1A1A" stroke-width="1.5" stroke-linecap="round" stroke-linejoin="round"/>
<path d="M16.7 6.08V14.25C16.7 16.7 15.48 18.33 12.62 18.33H6.08002C3.23002 18.33 2 16.7 2 14.25V6.08C2 3.63 3.23002 2 6.08002 2H12.62C15.48 2 16.7 3.63 16.7 6.08Z" stroke="#1A1A1A" stroke-width="1.5" stroke-miterlimit="10" stroke-linecap="round" stroke-linejoin="round"/>
<path d="M21.2804 12.0996L19.8604 19.0096C19.4404 21.0796 18.1204 22.2496 15.7004 21.7596L10.1704 20.6196C8.55035 20.2896 7.68039 19.4596 7.40039 18.3296H12.6204C15.4804 18.3296 16.7004 16.6996 16.7004 14.2496V7.55957L18.5304 7.92957C20.9504 8.42957 21.7004 10.0196 21.2804 12.0996Z" stroke="#1A1A1A" stroke-width="1.5" stroke-miterlimit="10" stroke-linecap="round" stroke-linejoin="round"/>
</g>
</g>
<defs>
<clipPath id="clip0_2538_3432">
<rect width="24" height="24" fill="white"/>
</clipPath>
</defs>
</svg>
